<svg
  xmlns="http://www.w3.org/2000/svg"
  viewBox="0 0 560 560"
  fill="none"
  shape-rendering="auto"
  aria-hidden="true"
  width="48"
  height="48"
>
  <!-- Generated by DiceBear (https://dicebear.com)-->
  <metadata xmlns:rdf="http://www.w3.org/1999/02/22-rdf-syntax-ns#" xmlns:xsi="http://www.w3.org/2001/XMLSchema-instance" xmlns:dc="http://purl.org/dc/elements/1.1/" xmlns:dcterms="http://purl.org/dc/terms/"><rdf:RDF><rdf:Description><dc:title>Notionists</dc:title><dc:creator>Zoish</dc:creator><dc:source xsi:type="dcterms:URI">https://heyzoish.gumroad.com/l/notionists</dc:source><dcterms:license xsi:type="dcterms:URI">https://creativecommons.org/publicdomain/zero/1.0/</dcterms:license><dc:rights>Remix of “Notionists” (https://heyzoish.gumroad.com/l/notionists) by “Zoish”, licensed under “CC0 1.0” (https://creativecommons.org/publicdomain/zero/1.0/)</dc:rights></rdf:Description></rdf:RDF></metadata><defs><g id="mouth-variant04-987f072b"><path d="M130.4 83.6a47 47 0 0 1 28.5-7.8c6.2.5 10.7 3.5 11 9.9.3 7.4-5.7 7-10.8 7.1h-24c-5.5-.3-7.8-3-4.7-9.2" fill="currentColor"/></g><g id="nose-variant01-987f072b"><path d="M53.4 95.7c.2-5.7.5-10.4.3-15-.2-7.3 3-10.2 10.5-8.5 2.8 10.7 2 22 1.1 32.7-1.8 19.6 7.7 32 23 41.6 19.6 12.3 25.6 32.7 13.4 48.6-19.8 25.4-56.3 21.8-75-4.1-2.2-3.2-1.4-7.5 0-11.2.9-2.3 1.9-5 5-5 3.8-.2 5.2 2.2 5.6 5.5 1.8 12.3 10.8 16.9 21.2 18.8 13 2.4 24.5-.5 32.3-12.4 7-10.7 5-20.9-6-26.9-25.4-13.7-35.9-34.6-31.4-64" fill="currentColor"/></g><g id="eyes-variant03-987f072b"><path d="M214 23q19.4.5 37.7 2.6c3 .3 4.9 3.3 5 6.6q-.1 5-4.8 7c-11.1 4.9-22 8.3-33.7.2-6.5-4.4-8.9-8.6-4.2-16.3M59.5 25.8c6.2 3.3 5.2 7 2.1 10.8-6.5 8-28.2 10-36.4 3.5-4.7-3.8-7.3-8.6-4.4-14.4 3-6 8.2-5 13-2.5 8 4 16.4 3 25.7 2.6" fill="currentColor"/></g><g id="glasses-variant11-987f072b"><path fill-rule="evenodd" clip-rule="evenodd" d="M371.8 24c48-35 106.4-15.6 124.2 37 11.5 33.6-3 78.2-44 93-41.7 15.1-78 1.6-98.3-36.3a73 73 0 0 1-7.6-28c-1-11.5-5.7-17.1-16.7-18.6q-18.6-2.3-24.5 15.4-1.8 5.8-2.8 11.7a70 70 0 0 1-3.5 14c-21.2 53.8-89.3 64.8-129 22.7a82 82 0 0 1-16.8-32.6 44 44 0 0 0-30.5-30.9c-19.7-6.6-39.3-13.9-59-21Q46.9 44 30.2 38.1c-5.7-2-11.7-4.4-8.7-11.3 2.2-5 6-3.4 9.7-1.8q1.7.8 3.4 1.3c17.2 5 33.7 11.5 50.3 18s33 13.1 50.2 18a18 18 0 0 0 22.5-11.1 69 69 0 0 1 63-44.6c34.6-2 62.7 12.9 77 47.2l3.2 6 1.6 3a57 57 0 0 1 45.6.6 82 82 0 0 1 24-39.5M248.5 143.3c24.3-10 40-27.5 43-53.8 5.6-49.4-42-83.2-89.2-65.2a63.4 63.4 0 0 0-27.7 95.1c18.4 25.1 42.8 31.3 74 24M433.3 19c19.5 1.6 33.6 15.1 44.7 31 14.2 23.7 11.3 55.3-11 79-14.8 15.7-48 23.3-70.3 13a62 62 0 0 1-37.6-65.7c6-45.2 40-60.2 74.2-57.3" fill="currentColor"/></g><g id="eyebrows-variant05-987f072b"><path d="M106.5 34.6c4.3 5.6 14.4 8.2 8.3 16.8-5.8 8.2-15.6 8.7-24.3 6.4q-14.3-3.5-27.1-10.6c-12.1-7-23.1-6.2-34.8.2-6.5 3.6-16 9.8-20.4 1.9-5-9.2 7-11.4 12.8-15.4 18-12.8 38.8-14 60-12.2 9.6.8 16.7 7.7 25.5 13m123.7 9.5c15.9-7.4 30.7-14.8 48.2-12.7a48 48 0 0 1 30 15.2c2.9 3.1 5 7.5 1.4 11.4-3.6 3.7-8.6 4.5-12.5.4-10-10.7-20.3-8.4-30.7-1.4-9 6.1-19.6 5.5-29.4 6.4-10.7 1-13.4-6.6-7-19.3" fill="currentColor"/></g><clipPath id="clip-987f072b"><rect width="560" height="560" rx="0" ry="0"/></clipPath></defs><g clip-path="url(#clip-987f072b)"><use transform="translate(136 329)" href="#mouth-variant04-987f072b"/><use transform="translate(246 126)" href="#nose-variant01-987f072b"/><use transform="translate(150.2 189.6)" href="#eyes-variant03-987f072b"/><use transform="translate(-44.7 138.1)" href="#glasses-variant11-987f072b"/><use transform="translate(120 114)" href="#eyebrows-variant05-987f072b"/></g>
</svg>
